<?xml version="1.0" standalone="no"?>
<!DOCTYPE svg PUBLIC "-//W3C//DTD SVG 20010904//EN"
 "http://www.w3.org/TR/2001/REC-SVG-20010904/DTD/svg10.dtd">
<svg version="1.0" xmlns="http://www.w3.org/2000/svg"
 width="1563.000000pt" height="1563.000000pt" viewBox="0 0 1563.000000 1563.000000"
 preserveAspectRatio="xMidYMid meet">
<metadata>
Created by potrace 1.14, written by Peter Selinger 2001-2017
</metadata>
<g transform="translate(0.000000,1563.000000) scale(0.100000,-0.100000)"
fill="#000000" stroke="none">
<path d="M1997 15594 c-1 -1 -45 -4 -97 -8 -101 -6 -112 -8 -235 -32 -87 -18
-274 -71 -290 -83 -5 -4 -39 -18 -75 -31 -88 -31 -268 -124 -363 -189 -159
-107 -342 -271 -450 -401 -20 -25 -42 -51 -48 -58 -6 -7 -45 -64 -87 -125
-150 -221 -275 -529 -317 -782 -3 -16 -7 -41 -10 -55 -3 -14 -8 -52 -12 -85
-10 -79 -10 -11799 0 -11890 9 -80 41 -243 63 -325 40 -144 127 -361 160 -400
7 -8 13 -19 14 -25 4 -30 138 -236 214 -331 63 -79 269 -277 348 -337 158
-117 300 -201 443 -262 22 -9 49 -21 60 -26 55 -24 249 -86 300 -95 17 -3 49
-9 73 -15 59 -13 92 -17 212 -29 124 -11 11814 -8 11900 4 30 4 62 10 70 13 8
3 26 7 40 9 23 3 82 14 105 20 190 48 306 89 453 161 29 14 55 30 58 34 3 5 9
7 14 4 4 -3 13 2 20 10 7 8 19 15 26 15 8 0 14 5 14 10 0 6 5 10 10 10 39 0
319 221 441 347 202 209 375 498 469 779 38 114 45 144 70 269 17 90 20 109
28 170 9 80 9 11759 -1 11855 -4 41 -9 84 -11 95 -2 11 -7 40 -11 65 -4 25
-14 72 -22 105 -8 33 -16 67 -18 75 -3 15 -41 128 -70 210 -28 78 -132 282
-186 365 -123 189 -301 388 -445 497 -88 66 -176 129 -209 149 -91 54 -182
102 -192 102 -7 0 -13 4 -13 9 0 4 -5 8 -10 8 -6 0 -32 10 -58 21 -26 12 -60
27 -77 34 -41 17 -155 56 -179 61 -10 2 -33 8 -51 14 -37 12 -48 15 -165 35
-112 19 -200 27 -285 27 -38 -1 -79 -1 -90 -1 -11 0 -2609 1 -5773 2 -3165 1
-5754 1 -5755 1z"/>
</g>
</svg>
